<?xml version="1.0" standalone="no"?>
<!DOCTYPE svg PUBLIC "-//W3C//DTD SVG 20010904//EN"
 "http://www.w3.org/TR/2001/REC-SVG-20010904/DTD/svg10.dtd">
<svg version="1.0" xmlns="http://www.w3.org/2000/svg"
 width="512.000000pt" height="512.000000pt" viewBox="0 0 512.000000 512.000000"
 preserveAspectRatio="xMidYMid meet">
<metadata>
Created by potrace 1.11, written by Peter Selinger 2001-2013
</metadata>
<g transform="translate(0.000000,512.000000) scale(0.100000,-0.100000)"
fill="#000000" stroke="none">
<path d="M2301 4929 c-284 -32 -594 -126 -841 -256 -714 -376 -1188 -1078
-1271 -1882 -15 -143 -6 -447 16 -591 61 -390 215 -753 458 -1080 91 -121 334
-365 457 -456 320 -239 658 -384 1057 -455 111 -20 161 -23 383 -23 222 0 272
3 383 23 399 71 737 216 1057 455 122 91 365 334 456 456 243 326 398 691 460
1085 24 157 29 454 10 619 -62 535 -285 1008 -656 1390 -365 376 -798 604
-1325 697 -138 24 -500 34 -644 18z m1451 -1116 c98 -35 171 -126 215 -268 15
-50 18 -92 17 -245 -1 -277 -3 -284 -244 -975 -67 -192 -171 -493 -231 -667
-170 -493 -167 -486 -200 -503 -15 -8 -55 -15 -88 -15 -99 0 -101 2 -256 425
-43 116 -88 244 -101 285 -38 121 -198 560 -205 560 -3 0 -60 -163 -128 -362
-221 -652 -293 -853 -313 -874 -15 -17 -35 -23 -86 -26 -96 -7 -124 7 -150 73
-22 56 -547 1496 -680 1867 l-76 212 -53 0 c-91 0 -153 40 -168 111 -8 37 19
95 58 123 27 20 48 21 400 30 516 12 466 14 499 -23 38 -43 39 -99 1 -141 -23
-26 -40 -33 -98 -41 -38 -6 -71 -12 -72 -13 -3 -2 447 -1352 463 -1390 6 -15
45 91 145 393 110 329 136 417 128 434 -5 12 -54 144 -108 292 l-98 270 -64 7
c-92 10 -108 16 -135 45 -35 38 -34 105 4 142 l27 27 447 -1 c418 -1 448 -2
467 -19 33 -30 44 -78 27 -119 -20 -48 -52 -66 -130 -74 -36 -3 -66 -7 -66 -7
0 -9 115 -341 128 -371 10 -22 41 -112 69 -200 28 -88 100 -308 159 -490 l107
-330 23 70 c183 566 194 606 194 741 0 155 -34 254 -164 474 -78 132 -99 189
-99 280 -1 153 91 273 237 311 46 12 139 4 198 -18z"/>
<path d="M3558 3726 c-60 -22 -85 -42 -114 -93 -22 -37 -28 -58 -27 -107 1
-80 19 -126 108 -276 120 -202 155 -308 155 -476 0 -123 -21 -227 -85 -424
-30 -91 -81 -252 -114 -358 -59 -192 -78 -232 -111 -232 -43 0 -59 35 -188
420 -72 212 -157 464 -189 560 -116 342 -203 617 -203 642 0 42 28 57 124 67
48 5 90 11 93 14 3 4 -115 4 -263 1 -148 -3 -331 -2 -406 3 -76 4 -138 5 -138
2 0 -9 55 -19 104 -19 55 0 88 -19 107 -60 9 -19 65 -169 124 -333 l108 -297
-158 -473 c-87 -259 -164 -484 -171 -498 -22 -45 -80 -43 -105 2 -26 50 -529
1563 -529 1594 0 18 7 38 15 45 8 7 54 17 102 22 84 9 101 13 92 22 -2 2 -58
0 -124 -4 -66 -5 -238 -9 -381 -9 -220 -1 -264 -3 -274 -16 -23 -28 5 -45 76
-45 75 0 107 -13 124 -49 7 -14 56 -147 110 -296 54 -148 222 -612 374 -1030
152 -418 278 -765 280 -771 3 -7 18 -9 42 -5 l37 6 112 325 c61 179 165 481
230 673 l119 347 38 12 c21 6 40 9 42 7 1 -2 56 -150 121 -329 64 -179 122
-334 128 -345 18 -31 37 -88 37 -108 0 -20 158 -459 196 -544 20 -47 26 -53
53 -53 35 0 5 -76 252 640 430 1249 402 1152 403 1420 1 158 -1 182 -22 242
-30 85 -71 142 -123 169 -53 27 -133 34 -181 15z"/>
</g>
</svg>
